<?xml version="1.0" standalone="no"?>
<!DOCTYPE svg PUBLIC "-//W3C//DTD SVG 20010904//EN"
 "http://www.w3.org/TR/2001/REC-SVG-20010904/DTD/svg10.dtd">
<svg version="1.0" xmlns="http://www.w3.org/2000/svg"
 width="500.000000pt" height="500.000000pt" viewBox="0 0 500.000000 500.000000"
 preserveAspectRatio="xMidYMid meet">
<metadata>
Created by potrace 1.14, written by Peter Selinger 2001-2017
</metadata>
<g transform="translate(0.000000,500.000000) scale(0.100000,-0.100000)"
fill="#000000" stroke="none">
<path d="M2976 4493 c-3 -10 -10 -56 -16 -103 -16 -128 -15 -127 -47 -123 -55
7 -89 -51 -52 -88 13 -13 28 -18 46 -14 49 8 58 29 62 150 l2 30 25 -30 c14
-16 36 -41 47 -55 13 -16 21 -39 21 -62 1 -43 7 -41 35 12 27 52 33 88 19 114
-13 24 -129 186 -133 186 -2 0 -6 -8 -9 -17z m20 -91 c44 -29 103 -142 75
-142 -15 0 -83 93 -93 126 -6 25 -1 29 18 16z"/>
<path d="M1563 4430 c-1 -64 -25 -184 -34 -169 -5 9 -12 -19 -34 -136 -2 -11
-4 -31 -5 -45 l-1 -25 -11 25 c-50 122 -77 165 -79 128 0 -7 -6 -2 -12 12 -14
31 -40 55 -94 87 -24 14 -43 30 -43 35 0 6 6 5 15 -2 9 -7 18 -10 21 -8 16 17
-111 77 -195 93 l-22 4 21 -34 c49 -80 53 -93 62 -193 2 -33 11 -44 73 -96 35
-28 28 -45 -8 -21 -24 15 -26 15 -36 -3 -8 -16 -1 -28 44 -78 30 -32 55 -62
55 -66 0 -4 -35 20 -79 53 -75 57 -187 109 -236 108 -18 0 -17 -1 5 -15 24
-15 24 -15 -15 -8 -53 9 -111 6 -159 -9 -62 -18 -156 -120 -210 -230 -25 -50
-44 -92 -42 -95 2 -2 22 8 43 21 43 27 159 87 169 87 3 0 -4 -16 -16 -35 l-22
-35 22 0 c41 0 116 24 161 52 62 38 66 35 18 -13 l-40 -40 88 7 c164 12 197 8
107 -16 -39 -10 -92 -28 -118 -41 -47 -22 -47 -23 -25 -34 22 -12 21 -13 -29
-39 -70 -36 -127 -99 -147 -165 -6 -19 -4 -23 7 -18 13 5 13 0 0 -36 -19 -53
-21 -190 -4 -239 14 -39 32 -51 32 -22 0 9 12 48 28 87 19 49 28 64 30 49 6
-38 19 -24 38 39 18 59 19 60 29 35 l11 -26 12 34 c7 19 20 40 29 47 14 12 15
11 9 -9 l-8 -23 34 17 c18 9 64 39 101 66 38 27 70 48 72 46 2 -2 -21 -28 -50
-60 -29 -31 -58 -72 -65 -92 -13 -39 -21 -44 -40 -21 -16 19 -33 9 -22 -12 7
-12 -16 -41 -98 -123 -100 -101 -250 -285 -250 -306 0 -5 50 -38 111 -73 99
-58 110 -67 107 -90 -4 -38 -27 -37 -120 7 -46 22 -96 42 -112 46 -16 4 -56
33 -89 64 -33 31 -57 50 -52 42 8 -13 7 -13 -11 0 -10 8 -21 17 -24 21 -3 3
-22 13 -44 23 -69 32 -77 -23 -9 -59 21 -11 40 -23 43 -26 5 -8 27 -12 49 -10
8 1 11 7 7 17 -5 14 -4 15 9 4 8 -7 15 -16 15 -21 0 -5 20 -27 45 -50 43 -40
45 -43 28 -61 -23 -26 -24 -57 -1 -69 25 -14 52 -4 68 26 l13 24 50 -26 50
-25 -37 -34 c-20 -19 -35 -38 -32 -42 2 -4 19 -9 37 -10 19 -2 43 -11 54 -21
11 -10 30 -24 43 -30 12 -6 22 -19 22 -28 0 -13 -3 -14 -12 -5 -7 7 -19 12
-27 12 -8 0 -29 11 -47 25 -18 14 -36 25 -40 25 -4 0 -15 7 -25 16 -18 16 -44
11 -34 -7 8 -13 -7 -11 -86 8 -43 10 -71 22 -74 32 -3 9 -39 52 -81 96 -42 44
-65 64 -53 45 13 -19 32 -44 42 -55 11 -11 26 -30 34 -43 14 -20 14 -24 -1
-41 -21 -23 -21 -60 0 -68 10 -3 31 -1 47 5 24 9 33 9 39 -1 4 -6 8 -9 8 -6 0
3 24 0 52 -8 71 -19 97 -22 104 -11 3 4 10 6 15 2 5 -3 7 -9 4 -14 -3 -4 1
-10 9 -13 7 -3 16 -15 19 -27 5 -20 3 -22 -31 -15 -68 12 -307 65 -334 74 -18
7 -30 6 -36 -2 -12 -16 -21 -77 -11 -82 4 -3 56 -7 116 -10 176 -8 310 -19
318 -27 2 -2 12 -21 20 -42 12 -29 13 -37 3 -33 -116 49 -218 48 -321 -2 -37
-18 -67 -35 -67 -38 0 -15 51 -43 87 -49 24 -3 41 -10 38 -14 -2 -4 2 -16 10
-26 20 -26 19 -31 -10 -38 -22 -6 -24 -10 -19 -44 4 -20 7 -43 8 -50 4 -25 22
-33 50 -22 15 5 36 10 47 10 20 0 20 0 1 -27 -45 -65 -62 -118 -66 -207 -1
-25 -11 -34 -106 -84 -58 -30 -108 -60 -112 -65 -8 -14 22 -77 38 -77 10 0
132 82 181 122 8 7 18 -3 34 -34 23 -47 86 -128 98 -128 4 0 13 19 20 43 7 23
23 59 37 79 13 21 24 40 24 43 0 11 108 108 149 132 66 40 154 61 241 57 87
-3 110 -7 152 -29 46 -23 50 -20 47 38 -4 84 -7 89 -35 70 l-25 -16 3 139 3
138 108 16 c59 9 110 14 112 11 3 -2 5 -21 5 -42 l0 -37 -52 -8 c-29 -4 -57
-8 -63 -9 -5 -1 -17 -3 -26 -3 -11 -2 -15 -12 -14 -37 0 -18 3 -36 6 -40 3 -3
27 -1 52 4 l47 8 0 -43 c0 -40 -2 -44 -24 -44 -12 0 -37 -5 -53 -10 -29 -11
-30 -12 -32 -84 l-2 -74 34 -21 c74 -46 146 -141 161 -213 5 -22 13 -28 44
-33 20 -3 89 -15 152 -26 63 -11 132 -22 155 -25 22 -3 65 -10 95 -15 30 -5
75 -12 100 -15 25 -2 75 -8 111 -12 180 -21 447 17 619 89 52 22 165 79 250
126 199 112 249 137 256 130 12 -11 -42 -54 -131 -102 -49 -27 -97 -54 -107
-60 -80 -49 -221 -113 -317 -145 -179 -59 -274 -75 -456 -75 -169 0 -243 7
-466 47 -161 28 -207 32 -364 32 -150 1 -188 -2 -230 -17 -63 -23 -125 -59
-167 -97 -37 -34 -52 -34 -56 2 -6 47 106 124 231 159 23 7 89 14 147 15 80 2
104 6 102 16 -17 65 -92 145 -178 188 -40 20 -64 24 -134 25 -104 0 -137 -7
-217 -46 -69 -33 -181 -120 -209 -161 -11 -16 -23 -28 -29 -28 -21 0 -55 -72
-71 -151 -21 -103 -14 -215 18 -319 41 -134 179 -274 327 -331 44 -18 77 -22
156 -22 55 0 109 1 119 2 11 1 23 -4 28 -12 4 -8 34 -25 65 -38 46 -19 76 -24
148 -24 104 0 156 19 233 83 63 53 113 70 147 52 16 -8 22 -17 16 -24 -5 -6
-12 -22 -16 -35 -8 -25 -65 -118 -103 -166 l-22 -28 -29 27 c-47 45 -107 45
-161 0 -76 -65 -37 -184 66 -200 75 -11 143 53 132 124 -2 17 -1 33 2 34 12 5
140 176 140 187 0 6 5 11 10 11 6 0 10 6 10 14 0 7 10 21 23 30 12 9 15 14 7
10 -12 -7 -13 -5 -3 8 7 8 10 18 6 21 -3 4 0 7 8 7 8 0 23 -21 33 -48 46 -113
143 -229 225 -270 25 -12 46 -20 48 -18 9 9 -4 272 -14 288 -7 13 6 9 32 -8
13 -9 33 -31 44 -50 11 -19 29 -37 38 -41 10 -4 38 -19 63 -34 67 -41 188 -86
249 -94 l54 -7 -8 39 c-4 21 -22 71 -41 112 -38 82 -38 81 -25 81 5 0 31 -30
57 -68 128 -180 237 -251 395 -258 79 -3 161 15 209 44 45 28 112 106 136 158
32 68 41 216 13 198 -8 -5 -13 12 -12 44 1 6 -2 12 -6 12 -4 0 -9 20 -9 45 -1
25 0 45 2 45 3 0 16 -11 30 -25 21 -21 34 -25 83 -25 101 1 195 50 263 138 18
23 35 40 38 38 9 -10 -30 -97 -64 -142 -19 -24 -34 -46 -34 -48 0 -9 88 16
125 35 89 46 131 119 134 234 1 77 -26 176 -50 183 -9 2 -10 1 -3 -5 6 -4 15
-28 19 -53 4 -25 9 -55 11 -67 3 -13 0 -23 -4 -23 -5 0 -12 16 -15 34 -7 46
-34 103 -68 145 -15 18 -25 39 -23 45 2 7 -9 26 -26 43 -26 26 -28 32 -13 37
9 4 20 1 25 -6 4 -7 8 -10 8 -6 0 4 24 -5 53 -19 80 -41 125 -51 172 -41 61
14 87 34 83 66 -2 22 -8 27 -32 27 -21 0 -30 -5 -32 -18 -6 -45 -13 -50 -56
-44 -22 3 -50 14 -60 25 -19 19 -18 20 106 60 69 23 144 53 168 68 46 29 108
92 108 110 0 6 9 21 20 34 20 23 27 46 11 36 -5 -3 -12 5 -15 19 -5 21 -12 25
-42 25 -70 0 -135 -47 -120 -86 7 -17 38 -18 54 -2 19 19 26 1 12 -31 -14 -35
-24 -40 -65 -34 -37 6 -65 42 -72 91 -6 47 22 76 73 76 19 0 33 5 31 11 -4 13
-86 64 -112 70 -11 2 -38 11 -60 19 -35 12 -41 19 -48 56 -8 38 -6 44 15 58
13 9 32 26 43 37 26 27 53 21 61 -13 12 -57 23 -72 51 -72 41 1 55 16 98 113
22 48 42 87 45 87 4 0 28 -34 54 -75 45 -72 47 -77 33 -99 -30 -45 -47 -57
-67 -46 -26 14 -46 12 -64 -6 -18 -17 -20 -42 -7 -63 11 -16 69 -19 79 -4 4 5
20 14 36 20 45 14 89 74 89 121 0 31 -12 57 -62 129 -33 50 -61 96 -61 103 0
29 -23 -2 -62 -85 -24 -49 -47 -93 -52 -97 -12 -8 -28 0 -22 11 4 6 -22 15
-105 37 -18 5 -31 52 -34 119 -1 22 -5 52 -9 67 l-8 28 65 -4 c122 -8 214 -9
225 -2 7 4 10 17 8 29 -3 12 -5 28 -5 35 -1 11 -24 12 -117 8 l-116 -6 21 28
20 28 -85 28 c-90 29 -114 53 -41 41 46 -8 116 -38 160 -68 46 -31 43 -11 -4
33 -25 23 -70 50 -102 62 -31 11 -56 22 -55 24 2 1 28 16 58 32 30 15 64 34
75 40 18 11 60 28 77 31 4 1 28 10 53 21 25 11 45 17 45 13 0 -3 9 2 20 12 24
22 25 34 5 62 -16 22 -16 22 -63 4 -26 -10 -55 -21 -66 -25 -15 -5 -16 -9 -6
-21 10 -12 10 -18 0 -30 -7 -9 -15 -13 -18 -11 -2 3 -21 -1 -41 -8 -101 -36
-176 -52 -165 -34 10 15 101 57 109 50 5 -4 4 -1 0 7 -6 11 -4 13 8 8 9 -3 16
-3 15 1 -3 9 54 66 67 67 15 2 68 25 82 37 10 8 10 14 2 24 -9 11 -22 8 -69
-16 l-58 -29 -36 43 -36 44 133 67 c176 89 219 115 214 129 -7 18 -48 8 -92
-22 -22 -15 -42 -30 -45 -33 -3 -3 -13 -8 -22 -12 -9 -3 -58 -31 -108 -62 -52
-31 -97 -52 -103 -48 -7 4 -37 32 -69 61 -54 52 -56 55 -46 85 10 28 9 32 -18
54 -16 12 -32 23 -36 23 -5 0 -8 9 -8 21 0 11 -4 18 -8 15 -5 -3 -16 21 -26
52 -9 31 -30 75 -46 96 -17 22 -28 41 -26 43 9 9 154 -98 159 -117 3 -11 1
-17 -4 -14 -6 3 -21 -6 -34 -20 -20 -22 -21 -27 -8 -37 12 -11 20 -7 46 21 22
24 32 29 36 19 3 -8 10 3 16 25 l11 39 18 -67 c20 -72 36 -94 36 -49 1 25 2
26 14 11 7 -10 21 -52 31 -93 9 -41 21 -77 25 -80 10 -6 40 102 44 157 3 50
-9 108 -31 155 -17 37 -11 58 7 24 6 -12 15 -21 21 -21 15 0 -36 89 -73 129
-17 18 -44 38 -60 43 -30 11 -34 35 -4 30 9 -2 16 2 16 7 0 14 -79 53 -162 80
-38 13 -68 25 -68 28 0 7 109 -3 180 -17 29 -6 55 -9 57 -7 2 2 -16 23 -39 47
-48 48 -47 48 37 -3 35 -21 81 -39 109 -43 l49 -7 -21 31 c-12 16 -22 33 -22
36 0 9 76 -31 143 -75 31 -21 57 -35 57 -31 -1 29 -46 132 -79 180 -87 128
-207 189 -311 158 -24 -7 -24 -6 -6 8 19 15 19 16 -7 16 -60 0 -176 -59 -287
-147 l-35 -27 27 29 c14 17 43 47 62 68 40 43 48 79 17 74 -10 -2 -26 -9 -35
-16 -14 -12 -16 -12 -11 1 3 8 26 30 49 48 38 28 45 38 51 83 5 29 7 58 6 64
-2 14 42 96 68 127 15 18 14 19 -39 12 -64 -8 -141 -40 -166 -67 -17 -19 -17
-20 2 -13 10 3 -5 -8 -33 -25 -29 -17 -60 -43 -69 -57 -10 -15 -20 -21 -24
-15 -8 14 -80 -130 -80 -160 0 -44 -12 -9 -21 58 -4 37 -10 77 -13 88 -2 11
-5 24 -5 28 -1 5 -5 5 -11 2 -6 -4 -10 6 -11 22 0 15 -3 37 -6 48 -2 11 -5 50
-5 88 -1 37 -4 67 -8 67 -26 0 -90 -150 -90 -211 0 -11 -11 -5 -38 21 -42 39
-86 63 -157 85 -38 11 -45 11 -45 0 0 -8 5 -17 11 -21 9 -5 50 -85 53 -104 1
-3 4 -9 7 -15 4 -5 19 -48 34 -95 17 -55 36 -94 53 -109 17 -16 20 -22 10 -18
-11 4 -18 2 -18 -5 0 -13 46 -95 69 -122 18 -22 14 -21 -54 15 -27 15 -72 34
-99 43 -42 15 -51 15 -77 2 -19 -10 -27 -10 -22 -3 5 9 3 9 -8 0 -8 -6 -36
-14 -63 -18 -72 -11 -214 -86 -271 -142 -50 -50 -50 -44 0 24 16 22 45 51 65
64 19 13 38 27 41 32 3 4 10 7 15 6 5 -2 41 7 79 19 59 18 81 24 125 31 3 1
-22 26 -54 56 -84 78 -290 175 -406 192 -19 3 -38 8 -41 11 -9 10 -40 145 -34
150 6 7 82 -28 111 -50 24 -19 25 -58 2 -85 -16 -20 6 -16 30 5 60 52 40 112
-52 155 -31 15 -74 38 -96 52 -45 28 -46 27 -26 -39 8 -25 14 -50 15 -54 0 -4
5 -28 12 -55 17 -72 14 -75 -91 -76 -50 0 -119 -7 -154 -15 -71 -17 -193 -61
-213 -77 -7 -6 -13 -9 -13 -5 0 6 -77 -34 -113 -59 -33 -23 -97 -86 -97 -95 0
-6 12 -10 28 -10 51 0 193 -74 250 -131 28 -29 52 -58 52 -66 0 -7 -23 9 -50
36 -47 46 -134 91 -176 91 -8 0 -13 4 -10 9 13 20 -24 30 -112 28 l-93 -2 28
23 28 24 -35 -7 c-19 -3 -65 -21 -102 -39 -38 -18 -68 -31 -68 -29 0 2 18 32
40 65 46 71 49 82 18 73 -18 -5 -16 -2 8 14 24 16 35 36 49 83 25 85 72 195
101 238 32 47 30 53 -13 45 -54 -10 -117 -42 -159 -81 -20 -19 -37 -34 -38
-32 -2 2 -8 28 -15 58 -13 60 -57 160 -70 160 -4 0 -8 -23 -8 -50z m-328 -80
c3 -6 -1 -7 -9 -4 -18 7 -21 14 -7 14 6 0 13 -4 16 -10z m5 -45 c13 -14 21
-25 18 -25 -2 0 -15 11 -28 25 -13 14 -21 25 -18 25 2 0 15 -11 28 -25z m2610
-28 c0 -2 -10 -12 -22 -23 l-23 -19 19 23 c18 21 26 27 26 19z m-530 -42 c13
-14 21 -25 18 -25 -2 0 -15 11 -28 25 -13 14 -21 25 -18 25 2 0 15 -11 28 -25z
m-2345 -199 l40 -14 -60 0 c-68 1 -118 -6 -158 -21 -43 -16 -23 7 23 28 50 22
106 25 155 7z m3272 -61 c46 -19 37 -29 -13 -16 -22 6 -70 13 -109 17 -38 4
-72 8 -73 9 -2 2 16 7 40 12 45 10 97 2 155 -22z m-1685 -19 c27 -33 1 -86
-45 -94 -45 -8 -88 56 -63 90 30 40 77 41 108 4z m138 -38 c0 -4 -7 -8 -15 -8
-8 0 -15 4 -15 8 0 5 7 9 15 9 8 0 15 -4 15 -9z m54 -1 c3 3 6 1 6 -5 0 -16
-43 -9 -48 7 -3 10 0 10 16 2 10 -6 22 -7 26 -4z m107 -35 c-15 -5 -85 14 -88
25 -3 8 13 6 46 -5 27 -9 46 -18 42 -20z m-256 -190 c7 -24 15 -32 35 -33 22
-2 22 -2 -5 -6 -16 -3 -37 -11 -45 -18 -47 -42 -117 -6 -101 52 16 60 98 63
116 5z m-593 -59 c26 -14 55 -34 64 -44 33 -37 -11 -31 -82 10 -62 36 -91 47
-129 50 -5 1 -3 6 5 12 22 14 87 2 142 -28z m1193 17 c-3 -5 -11 -10 -18 -10
-19 0 -167 -73 -167 -82 0 -5 5 -6 10 -3 6 3 10 0 10 -7 0 -7 -25 -39 -55 -72
-31 -33 -55 -52 -55 -43 0 9 5 19 10 22 6 4 8 10 5 15 -3 5 11 25 31 46 30 33
33 40 20 49 -13 10 -8 16 31 41 25 16 60 34 77 41 39 14 109 17 101 3z m-1096
-142 c17 -18 33 -41 36 -50 7 -21 26 -23 44 -5 6 6 15 12 19 13 4 0 24 7 44
16 75 33 274 80 253 59 -6 -5 -26 -11 -45 -14 -51 -8 -156 -40 -225 -70 -53
-23 -60 -29 -58 -52 2 -25 1 -26 -20 -12 -11 7 -50 47 -87 87 l-65 73 37 -6
c24 -4 47 -17 67 -39z m-298 -115 c10 -3 19 -8 19 -12 0 -10 -89 -96 -93 -90
-2 2 -9 24 -16 49 -7 25 -24 60 -37 78 -14 17 -23 32 -21 32 3 0 26 -12 52
-27 l48 -26 -7 34 -6 34 20 -34 c12 -18 30 -35 41 -38z m1506 33 c-10 -25 5
-26 40 -5 18 11 33 19 33 16 0 -2 -13 -27 -29 -56 l-28 -52 -17 25 c-16 26
-21 67 -9 79 11 11 15 8 10 -7z m-367 -21 c0 -13 -32 -66 -37 -62 -10 11 9 67
23 67 8 0 14 -2 14 -5z m-780 -80 c0 -16 -4 -13 -20 13 -11 18 -20 38 -20 45
1 20 40 -37 40 -58z m1585 -1 c30 -39 23 -57 -19 -46 -27 7 -36 20 -36 55 0
38 22 34 55 -9z m-2114 -194 c24 -56 26 -66 13 -73 -19 -11 -57 22 -74 64 -7
16 -19 29 -27 29 -10 0 -11 5 -5 18 5 9 7 42 5 72 l-5 55 33 -50 c18 -27 45
-79 60 -115z m599 135 c0 -2 -15 -12 -32 -20 l-33 -16 25 20 c24 20 40 26 40
16z m-120 -51 c-36 -16 -96 -27 -140 -26 -69 0 -90 3 -90 10 0 4 29 6 65 6 36
-1 86 4 112 11 67 19 96 18 53 -1z m1638 -196 c16 -16 15 -58 -1 -80 -7 -9
-26 -20 -42 -24 -24 -6 -32 -2 -51 21 l-23 29 -53 -44 c-29 -25 -54 -48 -56
-52 -2 -5 -9 -8 -15 -8 -13 0 52 69 106 112 32 25 94 56 118 58 3 0 10 -5 17
-12z m-519 -134 c9 -22 17 -25 41 -22 17 3 30 1 30 -3 0 -14 -41 -37 -58 -34
-9 2 -22 4 -29 4 -18 1 -35 39 -28 61 9 28 30 25 44 -6z m-348 -59 c0 -6 -10
-13 -23 -16 -23 -6 -23 -6 5 -17 35 -15 37 -53 3 -72 -30 -16 -58 -7 -50 15 4
9 13 14 21 11 31 -12 34 7 4 20 -38 16 -39 42 -1 61 27 14 42 13 41 -2z m-161
-45 c0 -6 -10 -14 -22 -19 l-23 -8 22 -7 c32 -10 36 -34 8 -62 -13 -13 -29
-24 -35 -24 -16 0 -12 27 5 34 21 8 19 26 -4 26 -24 0 -34 36 -14 55 16 17 63
20 63 5z m-190 -88 c0 -56 -23 -86 -62 -80 -18 2 -24 11 -28 38 -3 19 -4 43
-2 53 6 25 31 21 30 -5 -2 -45 2 -58 17 -58 14 0 21 43 16 88 -1 6 5 12 14 12
11 0 15 -11 15 -48z m630 28 c1 -5 1 -55 1 -110 0 -153 0 -145 -13 -132 -8 8
-17 8 -30 1 -26 -14 -29 0 -26 126 3 107 4 109 28 116 36 10 40 10 40 -1z
m-820 -90 c0 -48 -3 -60 -16 -60 -8 0 -13 4 -10 8 2 4 1 14 -4 21 -6 10 -9 8
-15 -8 -8 -26 -21 -27 -34 -3 -9 14 -10 12 -11 -14 0 -20 -5 -31 -15 -31 -12
0 -15 13 -15 59 0 50 3 58 19 58 10 0 21 -9 24 -20 7 -27 24 -25 33 3 8 27 23
47 35 47 5 0 9 -27 9 -60z m665 -62 c27 -77 31 -98 19 -98 -7 0 -14 5 -14 10
0 6 -4 10 -10 10 -5 0 -10 -7 -10 -15 0 -8 -5 -15 -11 -15 -5 0 -7 -4 -4 -10
3 -5 1 -10 -4 -10 -6 0 -11 6 -11 14 0 7 -7 31 -17 52 l-16 39 -9 -40 c-5 -22
-11 -47 -12 -55 -1 -8 -12 -19 -24 -25 -12 -5 -22 -13 -22 -17 0 -4 18 2 40
13 44 23 67 18 32 -6 -11 -9 -27 -21 -34 -28 -7 -8 -26 -22 -42 -32 -40 -26
-144 -160 -168 -215 -11 -24 -22 -73 -25 -108 -4 -44 -9 -60 -16 -53 -18 18
-6 174 14 186 5 4 9 13 9 21 0 20 48 89 98 140 39 41 51 70 113 283 13 44 36
62 72 58 14 -1 27 -26 52 -99z m-186 -30 c-43 -154 -58 -191 -74 -178 -9 8
-15 8 -20 0 -11 -18 -24 -11 -20 12 3 12 19 72 36 134 27 97 35 112 58 121 48
20 49 16 20 -89z m-1946 57 c48 -10 31 -27 -20 -19 -57 8 -70 14 -53 24 12 7
17 7 73 -5z m1781 -118 c37 -107 43 -137 26 -137 -6 0 -15 -12 -21 -26 -5 -15
-11 -25 -13 -23 -6 6 -96 250 -96 259 0 7 41 27 61 29 4 1 23 -45 43 -102z
m-169 11 c-2 -29 -4 -88 -4 -132 -1 -63 -4 -77 -15 -73 -16 6 -50 -26 -39 -36
3 -4 1 -7 -5 -7 -12 0 -13 18 -13 175 0 36 0 73 0 84 1 15 34 34 72 40 4 1 5
-23 4 -51z m-112 5 c3 -5 2 -23 0 -40 -4 -28 -10 -33 -39 -39 -19 -3 -37 -11
-41 -17 -3 -5 -6 -45 -6 -88 1 -65 -2 -79 -15 -79 -9 0 -26 -10 -39 -22 l-23
-21 0 101 0 101 -40 -14 -40 -14 0 39 c0 39 1 40 53 54 28 8 75 21 102 29 59
17 82 20 88 10z m-300 -95 c15 -6 35 -23 43 -39 14 -28 14 -28 -26 -40 -34
-10 -43 -10 -58 4 -32 29 -72 15 -72 -25 0 -22 8 -25 75 -32 39 -4 56 -12 78
-36 30 -34 35 -75 12 -106 -14 -18 -14 -17 -15 12 0 58 -32 82 -113 83 -28 1
-45 8 -62 27 -18 19 -25 22 -25 12 0 -34 34 -59 85 -64 27 -3 55 -10 62 -16
18 -14 16 -48 -2 -48 -8 0 -15 7 -15 15 0 11 -11 15 -37 16 -83 1 -125 27
-133 80 -12 75 36 149 107 166 39 10 47 9 96 -9z m1309 -102 c22 -43 28 -140
11 -171 -8 -14 -11 -5 -12 36 0 39 -10 72 -33 119 -17 36 -33 76 -34 90 -3 25
-3 25 22 -5 14 -16 34 -48 46 -69z m-1562 25 c0 -41 8 -38 -137 -66 -30 -6
-33 -10 -33 -41 l0 -35 55 6 c30 3 55 2 56 -2 0 -4 2 -18 5 -30 5 -26 -15 -39
-75 -49 -39 -6 -41 -8 -41 -42 0 -41 -8 -39 -13 4 -2 17 -7 35 -11 42 -4 7 -3
12 2 12 5 0 9 7 9 15 0 8 -5 15 -11 15 -6 0 -6 4 1 11 7 7 8 22 1 46 -5 19 -7
41 -4 49 3 8 1 14 -4 14 -10 0 -12 -15 -14 -117 -1 -33 -7 -58 -17 -68 -14
-14 -15 -4 -17 108 l-2 124 87 16 c49 10 102 21 118 26 40 11 45 7 45 -38z
m-824 -191 c61 -43 66 -58 8 -27 -72 39 -118 46 -194 30 -79 -16 -96 -12 -52
11 80 41 164 36 238 -14z m1041 -396 c-3 -3 -27 -7 -54 -9 -83 -5 -151 -33
-207 -84 l-39 -36 24 33 c27 38 93 81 142 92 39 10 143 12 134 4z m1944 -376
c11 -21 11 -22 -4 -9 -10 7 -17 17 -17 22 0 15 9 10 21 -13z m-2804 -75 c-20
-20 -38 -41 -38 -47 -14 -118 16 -181 106 -229 51 -27 145 -29 195 -4 43 21
88 59 113 95 l19 27 -6 -33 c-7 -41 -64 -97 -125 -125 -102 -45 -234 -10 -290
79 -57 89 -50 186 16 245 47 41 54 36 10 -8z"/>
<path d="M2777 4433 c-12 -11 -8 -23 8 -23 8 0 15 7 15 15 0 16 -12 20 -23 8z"/>
<path d="M1968 4405 c-3 -3 3 -40 13 -83 34 -138 33 -132 15 -132 -21 0 -66
-44 -66 -65 0 -8 9 -24 20 -35 31 -31 88 -4 95 45 0 6 -7 36 -16 68 -17 57
-17 57 4 57 40 0 97 -21 106 -38 4 -9 7 -25 6 -34 -7 -40 13 -24 28 22 31 95
-3 143 -121 170 -31 7 -62 17 -68 22 -6 4 -13 5 -16 3z m124 -96 c42 -11 51
-20 42 -43 -4 -11 -11 -13 -30 -6 -14 6 -38 11 -55 12 -31 2 -63 33 -52 50 5
9 17 8 95 -13z"/>
<path d="M2348 4303 c-4 -29 -2 -31 25 -31 22 1 27 5 24 18 -2 9 -1 23 3 31 6
11 1 14 -20 14 -24 0 -29 -4 -32 -32z"/>
<path d="M2256 4293 c-11 -11 -6 -23 9 -23 8 0 15 4 15 9 0 13 -16 22 -24 14z"/>
<path d="M996 4277 c-14 -10 -15 -15 -4 -30 15 -20 48 -14 48 8 0 23 -25 36
-44 22z"/>
<path d="M4046 4185 c-7 -20 3 -45 20 -45 20 0 36 34 22 48 -16 16 -35 15 -42
-3z"/>
<path d="M3140 4084 c-11 -12 -10 -18 3 -31 22 -23 52 0 36 28 -12 23 -22 24
-39 3z"/>
<path d="M1865 4050 c-4 -7 -3 -16 3 -22 14 -14 45 -2 40 15 -6 16 -34 21 -43
7z"/>
<path d="M650 3675 c0 -10 -15 -37 -32 -61 -25 -32 -44 -45 -76 -54 -39 -10
-50 -30 -16 -30 20 0 72 -76 80 -116 7 -36 24 -37 24 -1 0 30 38 72 80 89 l34
14 -31 19 c-33 19 -45 45 -48 107 -1 38 -15 67 -15 33z m-13 -145 c2 -20 -8
-26 -20 -13 -4 3 -2 12 4 20 15 17 14 17 16 -7z"/>
<path d="M4311 3671 c-18 -11 -5 -31 20 -31 12 0 19 7 19 20 0 21 -16 26 -39
11z"/>
<path d="M4387 3555 c-5 -59 -4 -80 7 -91 23 -23 30 -16 11 12 -18 29 -13 43
9 25 9 -8 16 -8 20 -2 4 5 2 12 -4 16 -5 3 -15 15 -20 25 -8 16 -8 18 5 14 8
-4 15 -10 15 -16 0 -5 4 -7 10 -3 11 7 3 36 -15 50 -6 6 -16 18 -22 28 -8 15
-11 2 -16 -58z"/>
<path d="M376 3463 c-18 -19 0 -45 62 -89 37 -27 95 -70 128 -96 34 -26 65
-48 69 -48 5 0 28 -16 52 -37 25 -20 40 -27 33 -17 -7 10 -33 36 -59 56 -26
21 -76 66 -111 99 -105 100 -162 143 -174 132z"/>
<path d="M4356 3358 c4 -7 15 -25 25 -39 10 -14 15 -30 11 -34 -4 -5 -1 -5 6
-1 17 10 15 37 -4 64 -16 23 -51 32 -38 10z"/>
<path d="M515 3165 c-36 -35 -37 -85 -2 -122 38 -42 119 -23 137 32 28 85 -73
153 -135 90z"/>
<path d="M4365 3053 c-22 -9 -43 -21 -47 -27 -4 -6 -8 -7 -8 -3 0 5 -13 0 -29
-9 -17 -10 -28 -21 -25 -26 5 -8 126 52 149 73 12 12 7 11 -40 -8z"/>
<path d="M474 2815 c-4 -8 -3 -23 0 -32 6 -15 8 -15 22 -2 8 9 12 23 8 32 -8
21 -23 22 -30 2z"/>
<path d="M4438 2807 c-14 -13 -27 -30 -30 -37 -3 -9 -20 -15 -40 -16 -47 -2
-58 -10 -58 -40 0 -35 43 -54 69 -30 11 10 18 26 16 37 -3 14 2 19 17 19 26 0
58 36 58 67 0 28 -1 28 -32 0z"/>
<path d="M4275 2380 c-8 -13 4 -32 16 -25 12 8 12 35 0 35 -6 0 -13 -4 -16
-10z"/>
<path d="M424 2099 c-10 -17 23 -46 37 -32 7 7 9 19 6 27 -7 18 -33 21 -43 5z"/>
<path d="M407 2044 c-7 -8 3 -37 17 -46 6 -4 16 -2 23 4 11 9 10 14 -3 29 -18
20 -27 23 -37 13z"/>
<path d="M4363 1644 c-8 -20 9 -36 30 -28 21 8 22 30 1 38 -22 8 -24 8 -31
-10z"/>
<path d="M4340 1539 c0 -11 5 -17 10 -14 6 3 10 13 10 21 0 8 -4 14 -10 14 -5
0 -10 -9 -10 -21z"/>
<path d="M522 1473 c-12 -24 -4 -43 17 -43 27 0 42 20 30 42 -12 23 -36 23
-47 1z"/>
<path d="M4372 1474 c-41 -28 -21 -104 28 -104 31 0 51 12 60 35 12 33 2 61
-26 74 -32 14 -35 14 -62 -5z"/>
<path d="M4032 1465 c-11 -12 -10 -15 2 -15 8 0 22 -10 30 -22 12 -17 18 -20
28 -10 9 9 6 17 -12 37 -27 29 -30 29 -48 10z"/>
<path d="M4158 1415 c-56 -31 -64 -91 -19 -136 32 -31 64 -36 105 -17 25 11
32 23 41 68 4 21 -16 74 -32 83 -24 14 -71 15 -95 2z"/>
<path d="M512 1236 c1 -10 8 -17 13 -17 15 1 12 24 -3 29 -9 3 -13 -2 -10 -12z"/>
<path d="M4226 1115 c-36 -76 -38 -95 -11 -95 11 0 13 8 8 31 -5 28 -4 30 21
23 20 -5 26 -2 26 9 0 9 -4 19 -10 22 -5 3 -10 13 -10 21 0 10 7 13 24 8 33
-8 37 6 10 34 l-22 23 -36 -76z"/>
<path d="M4032 978 c-15 -18 1 -41 24 -36 23 4 26 41 3 46 -9 1 -21 -3 -27
-10z"/>
<path d="M3670 966 c0 -2 25 -18 55 -35 86 -49 132 -95 133 -133 3 -101 175
-104 186 -3 4 36 -16 80 -43 95 -36 19 -86 12 -116 -16 l-27 -25 -27 24 c-42
38 -161 107 -161 93z"/>
<path d="M3590 917 c0 -9 47 -180 55 -198 6 -16 -17 -49 -35 -49 -15 0 -18
-39 -4 -59 16 -23 52 -20 70 4 9 12 8 27 -3 63 -13 42 -43 144 -43 149 0 1 22
-8 50 -20 70 -31 90 -51 90 -89 l0 -33 19 24 c21 27 20 76 -1 97 -7 7 -42 28
-78 46 -36 19 -77 42 -92 52 -16 10 -28 16 -28 13z"/>
<path d="M1885 851 c-3 -5 -2 -12 3 -15 5 -3 9 1 9 9 0 17 -3 19 -12 6z"/>
<path d="M1926 843 c-6 -14 -5 -15 5 -6 7 7 10 15 7 18 -3 3 -9 -2 -12 -12z"/>
<path d="M1275 699 c-9 -27 7 -43 34 -34 14 4 21 15 21 31 0 19 -5 24 -24 24
-16 0 -27 -7 -31 -21z"/>
<path d="M1073 639 c-35 -23 -63 -47 -63 -55 0 -17 40 -84 50 -84 19 0 21 22
5 40 -10 11 -15 26 -11 36 6 15 10 14 36 -11 26 -25 30 -26 36 -11 4 10 -1 25
-12 37 -15 17 -16 22 -4 29 10 6 20 4 31 -6 25 -22 33 -1 14 36 -8 16 -17 30
-18 30 -1 0 -30 -19 -64 -41z"/>
<path d="M1988 635 c-2 -21 -11 -34 -32 -44 -27 -13 -28 -14 -10 -24 10 -6 36
-29 56 -51 l37 -41 1 28 c0 15 9 35 20 44 23 20 26 33 8 33 -12 0 -34 22 -63
65 -13 19 -13 18 -17 -10z"/>
<path d="M1443 643 c-15 -5 -17 -39 -4 -47 4 -3 16 0 25 7 14 10 15 15 4 28
-7 9 -19 15 -25 12z"/>
</g>
</svg>
